<svg width="169" height="89" viewBox="0 0 169 89" fill="black" xmlns="http://www.w3.org/2000/svg">
<g clip-path="url(#clip0_2_9)">
<path fill-rule="evenodd" clip-rule="evenodd" d="M54.6256 0.0201654L54.4096 0.0217512C54.3531 0.022067 54.2965 0.021753 54.2399 0.0214391C53.9069 0.0195919 53.5739 0.0177448 53.2623 0.14414L53.1552 0.460353H51.2268V0.776566H49.8341V1.09278H48.6556L48.5485 1.40899H47.2629V1.7252H46.2987V2.04142H45.3345L45.2274 2.35763C44.9775 2.35316 44.7274 2.35332 44.4775 2.35763C44.1378 2.54088 43.964 2.63465 43.7807 2.7026C43.5885 2.77379 43.3859 2.81665 42.9709 2.90442L42.6562 2.99006V3.30627L41.6921 3.41167V3.62248H41.0493L40.9421 3.9387H40.4065L40.2993 4.25491L39.6566 4.36031V4.67653H38.7995L38.6924 4.88734C38.3702 5.12038 38.1461 5.20543 37.7483 5.27601L37.4068 5.30895V5.62517H36.8711L36.764 5.94138C36.3039 5.94138 36.1618 5.99772 35.7998 6.25759L35.6927 6.5738H35.0499V6.89002H34.5142L34.4071 7.20623L33.7643 7.31164V7.52244C33.6501 7.52244 33.572 7.52244 33.4962 7.53572C33.332 7.56448 33.1786 7.65557 32.693 7.94406V8.15487C32.5341 8.15487 32.4363 8.15487 32.3448 8.17884C32.1983 8.21721 32.0679 8.31699 31.7288 8.57649V8.8927H31.086V9.20891H30.7646L30.6575 9.52513H30.1218V9.84134H29.479V10.1576H29.1576L29.0505 10.4738H28.622L28.5148 10.79H28.0863V11.1062H27.5506L27.4435 11.4224H27.1221V11.7386C26.7338 11.7386 26.578 11.8361 26.2651 12.0548L26.1579 12.371H25.9437L25.8365 12.7927C25.3765 12.7927 25.2343 12.849 24.8723 13.1089L24.7652 13.4251H24.4438V13.7413H24.0153L23.9082 14.0575H23.4796V14.3737H23.1582V14.6899H22.8368V15.0062H22.3012L22.194 15.3224H21.8726V15.6386H21.5513V15.9548H21.2299L21.1227 16.1656C20.7579 16.2853 20.5477 16.4376 20.2657 16.6926V17.0088H19.9443L19.8371 17.325H19.6229L19.5157 17.5359L19.1943 17.6413V17.9575H18.873V18.2737H18.5516V18.5899C18.4327 18.6022 18.3694 18.6088 18.307 18.6203C18.2358 18.6335 18.1658 18.6532 18.0159 18.6953L17.9088 18.8995C17.8658 19.0135 17.8427 19.0747 17.8009 19.1177C17.7525 19.1677 17.6791 19.1933 17.5204 19.2487L17.266 19.3277V19.5385H17.0517L16.9446 19.8548H16.7303L16.6232 20.171H16.4089L16.1947 20.5926H15.9804L15.8733 20.9088H15.659L15.5519 21.225H15.3376L15.2305 21.5412H14.9091V21.8574H14.5877V22.1736H14.2663V22.4899H13.9449V22.8061H13.6235L13.5164 23.1223L13.2418 23.3199C13.1018 23.44 13.0368 23.4957 13.0016 23.5663C12.9711 23.6273 12.9627 23.6994 12.9472 23.8338L12.9807 24.0709H12.6593V24.3871H12.3379L12.2308 24.7034H12.0165L11.9094 25.125H11.588V25.4412H11.3737L11.2666 25.7574H10.9452C10.8439 25.971 10.7359 26.1815 10.6238 26.3898L10.3024 26.706V27.0222H9.981V27.3385H9.6596L9.55247 27.6547L9.33821 27.7601V28.2871H9.01681V28.6033H8.69542V29.0249H8.37402C8.18999 29.2756 8.06859 29.4991 7.97897 29.7957L7.94549 29.9736H7.6241V30.2898H7.40983L7.3027 30.9222H6.98131V31.2384L6.65991 31.3438V31.8708H6.33851V32.1871L6.01712 32.2925V32.8195H5.69572V33.2411H5.37433V33.8735H5.05293C4.94487 34.1287 4.84507 34.3772 4.77171 34.6443L4.73153 34.8222H4.41014V35.4546H4.08874C3.97963 35.6644 3.87285 35.8754 3.76735 36.087C3.69804 36.2635 3.62705 36.4394 3.55308 36.614C3.44209 36.7232 3.38859 36.7759 3.36095 36.8397C3.33522 36.8991 3.33188 36.9682 3.32543 37.1015L3.33882 37.3519H3.12455C3.06008 37.5648 2.98817 37.7757 2.91029 37.9843L2.69603 38.0897L2.64246 38.3532L2.58889 38.6167L2.37463 38.7221V39.3546H2.05323C2.02514 39.5665 1.9887 39.7774 1.9461 39.987C1.85026 40.0813 1.79729 40.1334 1.76682 40.1964C1.72916 40.2742 1.72585 40.3687 1.71845 40.5799L1.73184 40.9356H1.51757C1.50887 40.9574 1.50016 40.9792 1.49146 41.001C1.35754 41.3358 1.22565 41.6656 1.13466 42.0152C1.08739 42.2183 1.03495 42.4203 0.981915 42.6221C0.767651 42.8329 0.767651 42.8329 0.746727 43.0841L0.754259 43.3731L0.760118 43.6638L0.767651 43.8869H0.446255L0.430353 44.1793L0.406081 44.5589C0.388925 44.9281 0.388925 44.9281 0.339123 45.2572C0.283942 45.3115 0.238371 45.3563 0.200647 45.407C0.021753 45.6473 0.0193326 46.019 0.00543417 48.1533L0.00433565 48.4984C0.00389001 48.5949 0.00314168 48.6917 0.00239102 48.7889C-0.0034343 49.5431 -0.00940009 50.3154 0.124859 51.0544L0.339123 51.1598L0.37595 51.4394C0.377335 51.4681 0.3787 51.4967 0.380062 51.5253C0.394416 51.8266 0.408619 52.1247 0.446255 52.4247C0.563807 52.5211 0.626507 52.5725 0.662246 52.6385C0.7031 52.7139 0.708725 52.8084 0.720781 53.011L0.767651 53.3733C0.914503 53.5011 0.914503 53.5011 0.988611 53.8542L1.08905 54.2166H1.41044V54.6382L1.62471 54.7436L1.69166 55.0137L1.73184 55.2706H2.05323V55.5868C2.10892 55.6531 2.14023 55.6904 2.17412 55.7252C2.21766 55.7699 2.26545 55.8104 2.37463 55.903C2.55587 56.0402 2.73428 56.181 2.91029 56.3247C3.05211 56.5011 3.19481 56.6769 3.33882 56.8517L3.66021 56.9571L3.76735 57.1679H4.08874V57.4841C4.30414 57.5117 4.51853 57.5476 4.73153 57.5895C4.9458 57.8003 4.9458 57.8003 5.33415 57.8135L5.69572 57.8003V58.1165H6.98131V58.4327L6.98143 58.4328C7.3027 58.5381 7.30273 58.5382 7.51408 58.5515L7.75697 58.5518L8.03323 58.5528L8.3305 58.5521L8.95278 58.5526C9.28006 58.5519 9.60732 58.5513 9.9346 58.5519C10.1482 58.5523 10.3618 58.5525 10.5754 58.5524L10.8816 58.5521L11.1788 58.5528L11.4551 58.5518C11.7598 58.5515 11.9351 58.5297 12.2308 58.4327V58.1165H14.1591L14.2663 57.9057L14.558 57.8621L14.9158 57.8398L15.2744 57.816L15.5519 57.8003V57.4841L15.7552 57.4915L16.0206 57.4973H16.0207C16.2842 57.5047 16.2842 57.5047 16.5161 57.4841C16.727 57.236 16.727 57.236 17.1187 57.2074L17.4802 57.1679L17.5874 56.8517H18.5516V56.5355C18.5931 56.5364 18.6334 56.5376 18.6727 56.5389C18.9366 56.5473 19.156 56.5543 19.4086 56.4301V56.2193H20.1585V55.903C20.5963 55.8247 21.021 55.7229 21.4441 55.5868L21.5513 55.376L21.8258 55.3101L22.0869 55.2706L22.194 54.9544C22.378 54.9544 22.4566 54.9544 22.5313 54.9371C22.5871 54.9242 22.6407 54.9016 22.7343 54.8622L22.9641 54.7436C23.1005 54.6739 23.2368 54.6038 23.3725 54.5328V54.322L23.9082 54.2166L24.0153 53.9004C24.3964 53.8361 24.7312 53.734 25.0866 53.5841V53.2679C25.4244 53.1941 25.739 53.101 26.0508 52.9517L26.1579 52.6355H26.4793C26.5702 52.4066 26.5702 52.4066 26.8074 52.3061L27.015 52.2139V52.0031H27.4435V51.6869H27.7649V51.3707H28.0863C28.1116 51.3391 28.1358 51.3086 28.1592 51.279C28.3548 51.0319 28.4974 50.8518 28.8094 50.7053L29.0505 50.6328V50.3166H29.3719V50.0004H29.6933V49.6842H30.0147C30.2869 49.465 30.431 49.2889 30.5771 48.9727L30.6575 48.7355H30.8717L31.0123 48.5577L31.1931 48.3139C31.3759 48.1425 31.555 47.9671 31.7288 47.7869V47.4707H32.0502V47.1545H32.2645L32.3716 46.7329H32.5858L32.693 46.2058H32.9072L33.0144 45.7842H33.3358V45.1518H33.6572V44.5194L34.0857 44.414V43.8869H34.4071V43.1491H34.6214C34.6687 43.0559 34.6951 43.0039 34.7111 42.9489C34.7312 42.8794 34.7346 42.8052 34.7423 42.6371L34.7427 42.2565L34.7431 41.8435C34.7424 41.6263 34.7419 41.4091 34.7425 41.1919L34.7431 40.9764L34.7427 40.5634C34.7427 40.5125 34.7434 40.4635 34.744 40.4158C34.7477 40.1491 34.7509 39.9256 34.6214 39.6708H34.3V39.3546C34.0732 39.3525 33.8465 39.3507 33.6197 39.3494L33.3425 39.348L33.0665 39.3453L32.8039 39.3443C32.6597 39.3433 32.5154 39.3455 32.3716 39.3546L32.2645 39.46C32.0844 39.5264 31.9058 39.5968 31.7288 39.6708L31.6217 39.8816L31.3471 39.9475L31.086 39.987V40.3032H30.5503C30.4854 40.4813 30.4134 40.657 30.3361 40.8302L30.1218 40.9356V41.8843H30.4432V42.3059L30.67 42.3096L30.9655 42.3125C30.9932 42.3128 31.02 42.3133 31.046 42.3137C31.3027 42.3182 31.4832 42.3213 31.7288 42.2005V41.9897H31.9431L32.0502 41.568H32.693V41.2518H33.0144V41.9897L32.693 42.0951V42.9383L32.3716 43.0437V43.5707H32.0502C32.0133 43.8313 32.0133 43.8314 31.9431 44.0977L31.9431 44.0978L31.7288 44.2032L31.6217 44.5194L31.4074 44.6248C31.2609 44.8621 31.189 45.0644 31.1262 45.3363L31.086 45.5734H30.7646V45.8896H30.4432C30.3351 46.1448 30.2353 46.3933 30.162 46.6604L30.1218 46.8383H29.8004V47.1545H29.479V47.4707H29.1576L29.0505 47.7869H28.8362L28.7291 48.1031H28.5148L28.4077 48.4193H28.0863V48.7355H27.7649V49.0518H27.4435V49.368H27.1221C27.0968 49.3995 27.0726 49.4301 27.0492 49.4596C26.8536 49.7067 26.711 49.8868 26.399 50.0333L26.1579 50.1058V50.422H25.8365V50.7382H25.5151V51.0544H24.8723V51.3707H24.4438V51.6869H23.9082L23.801 52.0031H23.4796L23.3725 52.2139L23.098 52.2798L22.8368 52.3193V52.6355L22.194 52.7409V52.9517L21.5513 53.0571V53.2679L20.9085 53.3733V53.5841C20.4432 53.6535 20.0436 53.7988 19.6229 54.0058L19.5157 54.322H18.873V54.6382H18.0159L17.9088 54.9544H17.266V55.2706H16.4089L16.3018 55.5868H15.3376L15.2305 55.903H14.2663L14.1591 56.1138L13.844 56.1575L13.4561 56.1797L13.0673 56.2036L12.7664 56.2193L12.6593 56.5355C12.4216 56.5333 12.1839 56.5316 11.9462 56.5303L11.6549 56.5289L11.3662 56.5262L11.09 56.5252L11.0575 56.5249C10.7981 56.523 10.6512 56.522 10.4095 56.6409V56.8517H8.58829V56.5355H6.98131L6.87417 56.2193H6.01712V55.903H5.37433V55.5868H4.9458V55.2706H4.6244L4.51727 54.9544H3.98161V54.6382H3.66021V54.0058H3.33882V53.6895L3.01742 53.5841V53.0571L2.80316 52.9517L2.7362 52.6816L2.69603 52.4247L2.37463 52.3193C2.38109 52.1478 2.38443 52.0589 2.38466 51.9701C2.38491 51.8747 2.38156 51.7793 2.37463 51.5815C2.25294 51.4827 2.19221 51.4335 2.15993 51.3698C2.12777 51.3064 2.12384 51.2286 2.11601 51.0734L2.09341 50.7251L2.06914 50.3751L2.05323 50.1058H1.73184V46.7329L2.05323 46.6275C2.06186 46.4293 2.07073 46.2312 2.08085 46.0331L2.09341 45.7908C2.10537 45.5037 2.1269 45.2271 2.16037 44.941L2.37463 44.8356V43.8869H2.69603L2.71193 43.6831L2.7362 43.4192C2.75318 43.1624 2.75318 43.1624 2.80316 42.9383L3.01742 42.8329V41.8843H3.33882V41.2518H3.66021V40.3032H3.98161V39.6708H4.30301V39.0383L4.73153 38.9329V38.3005H4.9458L5.05293 37.6681L5.37433 37.5627V37.0357H5.69572C5.71375 36.9083 5.72297 36.8432 5.73588 36.7788C5.74939 36.7114 5.76694 36.6449 5.80285 36.5086L6.01712 36.4032V35.9816H6.23138L6.33851 35.4546H6.55278C6.61775 35.2765 6.68974 35.1008 6.76704 34.9276L6.98131 34.8222V34.506L7.3027 34.4006V33.8735H7.51697L7.6241 33.4519H7.94549V32.8195H8.26689V32.5033H8.58829L8.69542 32.1871C8.80471 32.0838 8.91198 31.9785 9.01681 31.8708V31.5546H9.23108C9.29605 31.3766 9.36804 31.2009 9.44534 31.0276L9.6596 30.9222V30.606H9.981V30.2898H10.1953C10.2238 30.0806 10.2238 30.0806 10.3024 29.8682L10.6238 29.7628V29.2357H10.9452V28.9195H11.2666V28.6033H11.4808L11.6951 27.9709H11.9094V27.6547H12.2308V27.3385H12.5522V27.0222H12.8736V26.706H13.195L13.3021 26.3898C13.344 26.3496 13.3854 26.3112 13.4258 26.2737C13.6371 26.0779 13.8223 25.9062 13.9248 25.6191L13.9449 25.4412H14.1591L14.2395 25.237C14.2974 25.1167 14.3259 25.0574 14.3723 25.0205C14.4173 24.9846 14.4791 24.9697 14.6011 24.9405L14.8019 24.9142L14.9091 24.3871H15.2305V24.0709H15.5519V23.7547H15.8733V23.4385H16.1947V23.1223H16.5161V22.8061H16.8374V22.4899H17.1588C17.2443 22.422 17.2878 22.3874 17.3273 22.3488C17.3684 22.3087 17.4052 22.2642 17.4802 22.1736L17.5874 21.8574H17.8016L17.9088 21.5412H18.123C18.2352 21.4471 18.2921 21.3993 18.3451 21.3475C18.3995 21.2942 18.4497 21.2365 18.5516 21.1196V20.8034H18.873V20.4872C19.2427 20.4569 19.3754 20.4195 19.6229 20.138L19.8371 19.8548C20.0161 19.7147 20.1947 19.5743 20.3728 19.4331V19.2223H20.8013V18.9061H21.1227V18.5899H21.4441V18.2737H21.7655L21.8726 17.9575C22.0438 17.9575 22.1238 17.9575 22.1915 17.9286C22.251 17.9033 22.301 17.8558 22.3949 17.7664L22.6226 17.5359C22.8036 17.4346 22.9828 17.3299 23.1582 17.2196V16.9034H23.4796V16.5872H23.801V16.271H24.1224L24.2296 15.9548H24.7652V15.6386H25.0866V15.3224H25.408L25.5151 15.1116L25.7897 15.0457L26.0508 15.0062V14.6899H26.4793V14.3737L27.015 14.2683V14.0575H27.4435V13.7413H27.7649V13.4251C27.8736 13.437 27.9333 13.4435 27.9931 13.4447C28.0659 13.4461 28.1388 13.4396 28.3006 13.4251L28.3006 13.4251C28.5483 13.234 28.5483 13.234 28.7291 13.0035V12.6873C29.1891 12.6873 29.3278 12.6237 29.6933 12.371C29.8913 12.0888 29.8913 12.0888 30.2289 11.956C30.3533 11.9021 30.4116 11.8767 30.468 11.8476C30.5179 11.8218 30.5663 11.7929 30.6575 11.7386L30.7646 11.4224L30.9521 11.3631C31.2312 11.3097 31.4706 11.2229 31.7288 11.1062L31.7288 11.1062C31.8164 10.8841 31.8164 10.8841 32.0167 10.7966L32.0168 10.7965C32.2644 10.6846 32.2645 10.6845 32.9072 10.3684V10.1576H33.3358V9.84134H33.9786V9.52513H34.3C34.6809 9.2368 35.0567 9.05489 35.4968 8.86841L35.6927 8.7873V8.47108H36.2283L36.3355 8.15487L36.8711 8.04947V7.83866H37.2997V7.52244H37.9424V7.20623H38.5852L38.6924 6.89002H39.3352V6.5738H39.978V6.25759C40.1922 6.26208 40.4065 6.26189 40.6207 6.25759C40.7396 6.12724 40.7396 6.12724 41.0024 6.04019L41.2635 5.94138V5.62517H42.1206L42.2277 5.30895H42.8705L42.9776 4.99274C43.562 4.93285 44.0394 4.78758 44.5846 4.57112V4.25491H45.5488V3.9387H46.513V3.62248H47.4772L47.5843 3.41167L47.8019 3.37544C47.8273 3.37387 47.8525 3.37233 47.8777 3.37079C48.1032 3.35704 48.3247 3.34354 48.5485 3.30627L48.6556 3.09546L48.9005 3.05182L49.198 3.02958L49.4964 3.0057L49.727 2.99006L49.8341 2.67384H51.1197L51.2268 2.46304L51.5147 2.4268C51.5502 2.42516 51.5856 2.42355 51.6209 2.42195C51.9195 2.40843 52.2151 2.39505 52.5124 2.35763L52.6195 2.14682L54.4408 2.04142L54.5479 1.83061L60.1188 1.7252V1.93601C60.3533 2.0514 60.3533 2.0514 61.0361 2.08753C61.2342 2.09489 61.3264 2.09831 61.4181 2.10687C61.4979 2.11431 61.5773 2.12564 61.7257 2.14682L61.8329 2.35763H63.1185V2.67384C63.472 2.77614 63.8226 2.87506 64.1831 2.95053L64.404 2.99006L64.5112 3.30627H65.3682V3.62248H65.6896L65.7968 3.9387H66.3324V4.14951L66.7609 4.25491V4.57112H67.0823V4.88734H67.4037V5.09814L67.7251 5.30895C67.8088 5.39809 67.8489 5.44084 67.8908 5.48177C67.9294 5.51949 67.9695 5.55566 68.0465 5.62517H68.3679C68.3478 5.86891 68.3478 5.86891 68.3679 6.15219C68.4395 6.24605 68.4746 6.29215 68.5157 6.33215C68.5553 6.37076 68.6005 6.40369 68.6893 6.4684L69.0107 6.5738V6.89002H69.3321V7.52244H69.6535L69.7606 8.15487H69.9749L70.082 8.68189H70.2963C70.2917 8.89265 70.2919 9.10355 70.2963 9.31432C70.3511 9.3618 70.3821 9.38867 70.4047 9.42136C70.4342 9.46399 70.4493 9.51651 70.4842 9.63753L70.5708 9.90063L70.6583 10.1646L70.7248 10.3684H70.9391V11.317L71.2605 11.4224C71.2495 11.9627 71.2566 12.4712 71.3676 13.0035H71.689C71.6846 13.3123 71.6811 13.6211 71.6786 13.9299L71.6756 14.3078L71.6702 14.6834L71.6681 15.0416C71.6647 15.3728 71.6647 15.3728 71.689 15.6386C71.9198 15.8234 71.9198 15.8234 71.931 16.0441L71.9317 16.2776L71.9326 16.532L71.9301 16.798L71.9326 17.064L71.9317 17.3185C71.9342 17.4387 71.9353 17.4955 71.931 17.5518C71.9271 17.6021 71.9189 17.6521 71.9033 17.7467C71.689 17.9575 71.689 17.9575 71.6647 18.2523L71.6681 18.6237L71.6702 19.0251C71.6729 19.2365 71.6756 19.448 71.6772 19.6594C71.6793 19.9867 71.682 20.314 71.6856 20.6412L71.689 20.9088H71.3676C71.3462 21.1035 71.3246 21.2982 71.3019 21.4928L71.2739 21.7323C71.2424 22.0232 71.2024 22.3061 71.1534 22.5953C70.9263 22.9303 70.9088 23.0565 70.8855 23.4451C70.8735 23.7196 70.8735 23.7196 70.832 23.9655C70.6177 24.1763 70.6177 24.1763 70.5968 24.4044L70.6043 24.6638L70.6102 24.9249L70.6177 25.125H70.4034C70.3411 25.3089 70.315 25.3858 70.3021 25.4649C70.2928 25.5218 70.2902 25.5798 70.2858 25.6796L70.2896 25.9353L70.2925 26.1934L70.2963 26.3898H69.9749V27.4439H69.7606C69.6535 27.6547 69.6535 27.6547 69.6468 28.0367V28.0368L69.6535 28.3925H69.3321L69.225 29.3411H69.0107V30.079H68.7964C68.6893 30.2898 68.6893 30.2898 68.6826 30.6191V30.6192L68.6893 30.9222H68.4751C68.4106 31.1352 68.3387 31.3461 68.2608 31.5546L68.0465 31.66V32.5033H67.7251V33.2411H67.4037L67.4037 33.2413C67.3668 33.5017 67.3668 33.5018 67.2966 33.7681L67.0823 33.8735L67.0154 34.1963L66.9752 34.506H66.7609L66.6538 35.1384L66.3324 35.2438V35.7708L66.011 35.8762V36.4032L65.6896 36.5086V37.0357L65.3682 37.1411V37.7735H65.0468V38.4059H64.7254C64.5901 38.6455 64.5063 38.8485 64.4442 39.1174L64.404 39.3546H64.0826V39.7762H63.8684L63.7612 40.3032H63.4399L63.4398 40.3033C63.403 40.5638 63.4029 40.5639 63.3327 40.8302L63.1185 40.9356L63.0113 41.2518L62.7971 41.3572L62.7301 41.68L62.6899 41.9897H62.3685C62.2332 42.2293 62.1494 42.4322 62.0873 42.7011L62.0471 42.9383H61.7257C61.6177 43.1935 61.5179 43.442 61.4445 43.7091L61.4043 43.8869H61.083V44.2032L60.7616 44.3086V44.8356H60.4402V45.2572H60.2259C60.0484 45.5087 59.9197 45.734 59.8308 46.028L59.7974 46.2058H59.476V46.5221L59.1546 46.6275V47.1545H58.8332C58.6591 47.2928 58.6591 47.2928 58.5118 47.4707L58.4046 47.7869H58.1904L58.0833 48.2085H57.869L57.7619 48.4193C57.5945 48.5708 57.5945 48.5709 57.4405 48.7355L57.4405 48.7355V49.0518H57.1191L57.0119 49.368L56.7977 49.4734V49.7896H56.4763C56.3478 50.1146 56.2109 50.4286 56.0477 50.7382H55.8335V51.0544H55.5121V51.3707H55.1907V51.6869H54.8693L54.7622 52.0031C54.5479 52.1085 54.5479 52.1085 54.3403 52.3588L54.1194 52.6355L54.1193 52.6356C53.9319 52.8068 53.9319 52.8068 53.798 52.9517V53.2679H53.4766L53.4766 53.268C53.2623 53.5841 53.2623 53.5842 53.1954 53.8147L53.1552 54.0058H52.8338V54.322H52.5124V54.6382H52.191V54.9544H51.8696V55.2706H51.5482V55.5868H51.2268V55.903H50.584V56.2193H49.8341L49.727 56.4301L49.3453 56.4959L48.977 56.5355L48.8699 56.8517H48.2271V57.1679C48.0129 57.1634 47.7985 57.1636 47.5843 57.1679C47.4754 57.2887 47.4754 57.2887 47.2792 57.3528L47.042 57.438L46.8038 57.524L46.6201 57.5895V57.8003H46.1916L46.1834 57.8087C45.9475 58.0515 45.8879 58.1128 45.5287 58.189L45.2274 58.2219V58.5381H44.3704L44.2632 58.749L43.9887 58.8148L43.7276 58.8544L43.6204 59.1706H43.0848L42.9776 59.4868H42.3349V59.803H41.7992L41.6921 60.1192H41.0493L40.9421 60.4354H40.2993V60.7516H39.7637L39.6566 61.0679H39.1209L39.0138 61.3841H38.4781L38.371 61.7003H37.8353L37.7282 62.0165L36.9783 62.1219V62.4381H36.4426L36.3355 62.7543H35.9069L35.7998 63.0705H35.3713L35.2641 63.2813L34.9896 63.3472L34.7285 63.3867V63.703H34.0857V64.0192C33.6836 64.0192 33.4657 64.1366 33.1215 64.3354L33.0144 64.6516H32.4787L32.3716 64.9678C32.01 64.9678 32.01 64.9678 31.4075 65.284L31.4074 65.284V65.6002L30.7646 65.7056V65.9165H30.4432V66.2327L29.8004 66.3381V66.6543H29.479V66.9705H28.8362L28.7291 67.2867H28.4077V67.6029C28.0705 67.6766 27.7621 67.7885 27.4435 67.9191V68.2354H27.1221V68.5516H26.5865L26.4793 68.8678H26.1579V69.184H25.8365V69.5002H25.5151V69.8164L24.8723 69.9218V70.1326L24.4438 70.238V70.5542H24.1224V70.8705H23.801V71.1867H23.4796V71.5029H22.944L22.8368 71.8191H22.5154V72.1353H22.194V72.4515H21.8726V72.7677H21.5513V73.0839H21.2299V73.4002H20.9085C20.6128 73.6069 20.3614 73.833 20.105 74.0853L19.8371 74.3488C19.6562 74.4864 19.4771 74.6264 19.3015 74.7704L19.1943 75.0866H18.873V75.4028H18.5516V75.7191H18.2302V76.0353H17.9088V76.3515H17.5874V76.6677H17.266V76.9839H16.9446V77.3001H16.6232L16.5161 77.6163H16.3018L16.1947 77.9325H15.9804L15.8733 78.2488H15.659C15.5468 78.3429 15.4899 78.3907 15.437 78.4425C15.3825 78.4958 15.3323 78.5535 15.2305 78.6704V78.9866H14.9091V79.3028H14.5877V79.619H14.2663V79.9352H13.9449V80.2514L13.6235 80.3568V80.8839H13.3021V81.2001H12.9807V81.5163H12.7664C12.6797 81.7694 12.6797 81.7694 12.5522 82.0433C12.5406 82.0535 12.5293 82.0633 12.5184 82.0729C12.3327 82.2354 12.2376 82.3186 12.1943 82.5793L12.1994 82.8285L12.2025 83.0992L12.2107 83.3806C12.2157 83.7079 12.2214 84.035 12.2308 84.3622L12.2779 84.3916C12.6296 84.6115 12.8865 84.7721 13.3117 84.825L13.6168 84.8102C13.7977 84.8035 13.9785 84.7954 14.1591 84.7838L14.2663 84.4676L14.4697 84.475L14.735 84.4808C14.875 84.4847 14.9407 84.4866 15.0062 84.4844C15.064 84.4824 15.1218 84.4773 15.2305 84.4676L15.4447 84.2568C15.6948 84.2223 15.9448 84.1872 16.1947 84.1514L16.3018 83.9406L16.6834 83.8747L17.0517 83.8352L17.1588 83.519C17.3454 83.519 17.4237 83.519 17.4986 83.5031C17.5527 83.4916 17.6051 83.4719 17.6953 83.4379L17.9222 83.3279C18.1506 83.2205 18.1507 83.2205 18.3372 83.0974L18.3373 83.0974L18.4444 82.7812H19.1943V82.4649H19.73L19.8371 82.1487H20.3728L20.4799 81.8325L20.6674 81.7732C20.9465 81.7198 21.186 81.633 21.4441 81.5163C21.6412 81.2307 21.6412 81.2307 21.9798 81.0947C22.16 81.0287 22.3389 80.959 22.5154 80.8839L22.6226 80.6731L22.8971 80.6072L23.1582 80.5677V80.2514H23.6939L23.801 79.9352H24.1224V79.619H24.6581L24.7652 79.3028L25.3009 79.1974L25.408 78.8812H25.7294L25.8365 78.565H26.3722L26.4793 78.2488H26.8007V77.9325H27.4435V77.6163H27.7649V77.3001H28.4077V76.9839H28.7291V76.6677H29.0505L29.1576 76.4569L29.4321 76.391L29.6933 76.3515V76.0353C30.1942 76.0353 30.3036 75.9425 30.6575 75.6136V75.4028H30.9789L31.086 75.0866C31.3471 75.0471 31.3471 75.0471 31.6217 74.9812L31.7288 74.7704L32.0502 74.665V74.3488H32.4787L32.5858 74.0326C32.8834 74.0326 32.8834 74.0326 33.3357 73.7164L33.3358 73.7164V73.4002C33.673 73.3264 33.9813 73.2146 34.3 73.0839V72.7677H34.7285C35.0736 72.3311 35.3369 72.1221 35.8417 71.8928L36.0141 71.8191V71.5029C36.3876 71.4348 36.6702 71.3001 36.9783 71.0813V70.7651H37.2997V70.4488H37.621C37.7299 70.3329 37.7786 70.281 37.8345 70.2386C37.8798 70.2043 37.9298 70.1761 38.0203 70.1252L38.5852 69.8164V69.5002H38.9066L39.0138 69.184H39.3352V68.8678H39.8708L39.978 68.657L40.2993 68.5516V68.2354H40.6207V67.9191C40.8171 67.9191 40.8935 67.9191 40.9553 67.8891C40.9946 67.87 41.028 67.8386 41.0828 67.7874L41.2635 67.6029C41.4817 67.4683 41.6965 67.3281 41.9063 67.1813V66.8651H42.2277L42.3349 66.6543L42.6562 66.5489V66.2327H42.9776C43.1565 65.9612 43.1565 65.9612 43.4597 65.8176C43.6639 65.716 43.664 65.7159 43.8346 65.6003L43.8347 65.6002L43.9418 65.284H44.2632V64.9678H44.5846V64.6516H44.906V64.3354H45.2274V64.0192H45.5488V63.703H45.8702C45.9009 63.6647 45.9299 63.6277 45.9578 63.592C46.1382 63.3618 46.2761 63.1857 46.5733 63.0574C46.8506 62.9594 46.9735 62.8731 47.1558 62.6489L47.2629 62.3327H47.4772L47.5843 62.0165H47.7986L47.9057 61.7003H48.2271V61.3841H48.5485V61.0679H48.8699V60.7516H49.1913V60.4354H49.5127V60.1192H49.8341V59.803H50.1555V59.4868H50.4769C50.5675 59.4175 50.6127 59.3829 50.6529 59.3433C50.693 59.3038 50.7281 59.2593 50.7983 59.1706V58.8544H51.1197C51.237 58.7587 51.2956 58.7109 51.3492 58.6581C51.4027 58.6055 51.4513 58.5479 51.5482 58.4327V58.1165H51.8696V57.8003H52.191V57.4841H52.5124V57.1679H53.1552V56.8517H54.1194V56.5355H55.0836L55.1907 56.3247C55.8299 56.2579 56.15 56.2244 56.4709 56.2112C56.7928 56.1979 57.1155 56.205 57.7619 56.2193V56.5355L58.0833 56.6409L58.1904 56.8517L58.5118 56.9571C58.617 57.1339 58.724 57.3096 58.8332 57.4841H59.1546V58.1165H59.476V60.5408H59.2617C59.1546 60.7516 59.1546 60.7516 59.1441 61.072L59.1479 61.4499L59.1508 61.8296L59.1546 62.1219H58.8332L58.726 63.0705H58.4046V63.3867H58.0833V63.703H57.7619V64.0192H57.4405V64.3354H57.1191V64.6516H56.9048L56.747 64.8212L56.5767 65.0469C56.399 65.2777 56.274 65.4558 56.1888 65.7336L56.1549 65.9165H55.9406L55.8335 66.2327H55.6192L55.5121 66.6543H55.1907V66.9705H54.8693V67.6029H54.5479L54.4408 67.9191H54.2265L54.0189 68.2156L53.798 68.5516C53.6889 68.655 53.5811 68.7598 53.4766 68.8678V69.184H53.2623L53.1552 69.6056H52.9409L52.8338 70.1326H52.6195L52.5124 70.5542H52.191C52.0829 70.8094 51.9831 71.058 51.9098 71.325L51.8696 71.5029H51.5482V72.1353H51.2268V72.4515H50.9054V73.0839H50.584V73.4002H50.2626L50.1555 74.0326H49.9412C49.9126 74.2418 49.9126 74.2418 49.8341 74.4542L49.5127 74.5596V75.0866H49.1913V75.4028H48.8699V76.0353H48.5485V76.3515H48.2271V76.6677H48.0128L47.9057 77.0893H47.6915L47.5843 77.6163H47.2629V77.9325H46.9415V78.3542L46.6201 78.4596V78.9866H46.2987C45.9521 79.2809 45.693 79.602 45.5622 80.034L45.5488 80.2514H45.2274L45.2274 80.2515C45.1905 80.5121 45.1905 80.5121 45.1203 80.7785L44.906 80.8839V82.7812C45.1385 82.7872 45.3709 82.7929 45.6034 82.7966L45.8903 82.8009C45.9388 82.8023 45.9866 82.8039 46.0338 82.8055C46.5719 82.8239 47.0342 82.8396 47.4772 82.4649L47.5843 82.1487H47.7986L47.9057 81.8325H48.2271V81.5163H48.5485C48.6391 81.447 48.6843 81.4124 48.7245 81.3728C48.7646 81.3333 48.7997 81.2888 48.8699 81.2001V80.8839H49.1913V80.5677H49.5127V80.2514H49.8341V79.9352H50.0484L50.1555 79.5136H50.3698L50.5125 79.344C50.7616 78.9895 50.9768 78.6986 51.3205 78.4266L51.5482 78.2488V77.9325H51.8696V77.6163H52.191V77.3001L52.5124 77.1947V76.6677H52.8338C52.9244 76.5984 52.9696 76.5638 53.0098 76.5242C53.0499 76.4847 53.085 76.4402 53.1552 76.3515V76.0353H53.4766V75.6136H53.6908C53.9107 75.3801 54.007 75.2128 54.0859 74.9022L54.1194 74.665H54.4408V74.3488H54.7622L54.7622 74.3487C54.7991 74.0882 54.7991 74.0882 54.8693 73.8218C54.955 73.7796 55.0065 73.7543 55.0506 73.7197C55.1168 73.6678 55.1666 73.5951 55.2911 73.4133L55.5121 73.0839C55.6211 72.9805 55.729 72.8757 55.8335 72.7677V72.4515H56.0477C56.1127 72.2734 56.1847 72.0977 56.262 71.9245L56.4763 71.8191V71.3975H56.7977V70.8705H57.0119C57.2096 70.5982 57.326 70.3727 57.407 70.047L57.4405 69.8164L57.7619 69.711V69.184H58.0833V68.5516H58.4046C58.4227 68.4242 58.4319 68.3591 58.4448 68.2947C58.4583 68.2273 58.4759 68.1608 58.5118 68.0245L58.726 67.9191V67.2867H59.0474C59.0689 67.3088 59.089 67.3298 59.108 67.3498C59.2566 67.5057 59.3454 67.5987 59.5888 67.6422L59.838 67.6412L60.1102 67.641L60.3933 67.6359C60.4483 67.6361 60.5034 67.6366 60.5584 67.6371C60.8413 67.6397 61.1241 67.6423 61.4043 67.6029L61.6186 67.3921C61.8687 67.3576 62.1187 67.3225 62.3685 67.2867C62.4113 67.1734 62.434 67.1135 62.4763 67.0752C62.5239 67.0322 62.5963 67.0167 62.7502 66.9837C63.1837 66.8441 63.5722 66.6509 63.9755 66.4435V66.2327C64.4765 66.2327 64.5858 66.1399 64.9397 65.8111V65.6002H65.3682L65.4754 65.3894L65.7499 65.3235L66.011 65.284V64.9678H66.3324V64.6516H66.9752V64.3354H67.2966C67.674 64.173 68.002 64.0246 68.2608 63.703L68.3679 63.3867H68.9036L69.0107 63.0705H69.225L69.3321 62.7543H69.5464C69.5665 62.734 69.5862 62.714 69.6057 62.6942C69.8508 62.4454 70.0522 62.241 70.3833 62.089L70.6177 62.0165V61.7003H70.9391V61.3841H71.2605V61.0679H71.5819V60.7516H71.9033L72.0104 60.4354H72.2247L72.3318 60.1192H72.6532C72.9368 59.8801 73.1506 59.6992 73.2759 59.3484L73.296 59.1706H73.6174V58.8544H73.8316C74.0593 58.6633 74.0593 58.6633 74.2601 58.4328L74.2602 58.4327V58.1165H74.5816V57.8003H74.7958L74.903 57.4841H75.2244C75.2472 57.2879 75.2472 57.2879 75.3315 57.0626L75.3315 57.0625C75.3667 57.0279 75.4007 56.9954 75.4335 56.9641C75.6121 56.7939 75.754 56.6586 75.8404 56.4037L75.8672 56.2193H76.1886C76.317 55.8943 76.4539 55.5802 76.6171 55.2706H76.8313L76.9385 54.9544L77.2599 54.849V54.322H77.4741L77.5813 53.9004H77.7955C77.8605 53.7223 77.9325 53.5466 78.0098 53.3733L78.2241 53.2679V52.9517H78.5455V52.3193H78.8669V52.0031L79.1883 51.8977V51.3707H79.5097V51.0544H80.2596V51.2652L80.9024 51.3707V51.6869H81.2238V52.2139L81.5452 52.3193V52.9517H81.2238V53.2679H80.9024V53.5841H80.581V53.9004L79.9382 54.0058V54.322H79.6168C79.4427 54.4603 79.4427 54.4603 79.2954 54.6382L79.1883 54.9544H78.8669V55.2706H78.5455V55.5868L78.0098 55.6922V55.903H77.7955C77.6908 56.0453 77.5832 56.1856 77.4741 56.3247C77.2933 56.4263 77.1145 56.5315 76.9385 56.6409C76.9038 56.7817 76.8681 56.9222 76.8313 57.0625L76.5568 57.1942L76.2957 57.2733V57.5895H75.9743V57.9057H75.6529V58.2219H75.3315V58.5381H75.0101V58.8544H74.6887L74.5816 59.0652L74.5815 59.0653C74.4923 59.2848 74.4923 59.2848 74.3673 59.4868L74.0459 59.5922L73.9388 60.1192H73.6174V60.4354H73.296V60.7516H72.9746V61.0679H72.7603C72.6481 61.162 72.5912 61.2098 72.5383 61.2616C72.4839 61.3149 72.4337 61.3726 72.3318 61.4895V61.8057H72.1175C71.8977 62.0393 71.8014 62.2065 71.7225 62.5172L71.689 62.7543H71.3676C71.1412 62.9856 71.052 63.153 70.9726 63.4658L70.9391 63.703H70.6177C70.5995 63.7997 70.5899 63.8505 70.5775 63.9006C70.5638 63.9558 70.5467 64.0102 70.5106 64.1246C70.2963 64.3354 70.2963 64.3354 70.272 64.5335L70.2754 64.771L70.2775 65.0283L70.2829 65.2972C70.2863 65.6091 70.2905 65.9208 70.2963 66.2327H70.6177V66.5489C70.8412 66.6117 71.0455 66.6542 71.278 66.6679L71.5266 66.6683L71.8037 66.6687L72.0908 66.6675C72.7532 66.6704 73.39 66.6434 74.0459 66.5489L74.153 66.2327H75.2244V65.9165H76.1886L76.2957 65.6002H76.9385V65.284H77.5813V64.9678H78.2241V64.6516H78.8669V64.3354H79.1883C79.2328 64.2232 79.2555 64.166 79.295 64.125C79.3361 64.0823 79.3954 64.0572 79.5163 64.006L79.7239 63.9138V63.703H80.1524C80.243 63.6337 80.2882 63.5991 80.3284 63.5594C80.3685 63.52 80.4037 63.4755 80.4738 63.3867L80.581 63.0705H80.7952L80.9024 62.7543H81.1166L81.2238 62.4381H81.438C81.5502 62.3439 81.6071 62.2962 81.66 62.2444C81.7145 62.191 81.7647 62.1334 81.8665 62.0165V61.7003H82.1879C82.2248 61.4396 82.2248 61.4397 82.2951 61.1733L82.5093 61.0679V60.7516H82.8307V60.1192H83.1521V59.4868H83.4735L83.4894 59.283L83.5137 59.0191V59.0189C83.5307 58.7622 83.5307 58.7622 83.5807 58.5381L83.7949 58.4327V57.1679H84.1163V53.2679H84.5448L84.652 53.0571C84.7958 53.0262 84.9388 52.9909 85.0805 52.9517L85.1876 52.6355L85.3751 52.5762C85.6514 52.5234 85.8926 52.4256 86.1518 52.3193V52.0031H86.4732V51.6869H87.0089L87.116 51.3707H87.6517L87.7588 51.0544L88.2945 50.949V50.7382H88.723L88.8301 50.422C88.8876 50.4231 88.9438 50.4251 88.9988 50.4272C89.278 50.4375 89.5298 50.4468 89.7943 50.3166V50.1058H90.4371V50.422H90.7585V51.3707L90.4371 51.4761V52.6355L90.1157 52.7409L90.0998 52.9641L90.0755 53.2548C90.058 53.5385 90.058 53.5386 90.0086 53.7948L90.0086 53.795C89.7943 54.0058 89.7943 54.0058 89.7809 54.3879L89.7943 54.7436H89.5801L89.4863 55.152C89.4379 55.3795 89.4379 55.3795 89.3658 55.5867L89.3658 55.5868C89.1515 55.7976 89.1515 55.7976 89.1381 56.1797L89.1515 56.5355H88.8301V57.4841H88.5087V58.2219H88.1873L88.0802 59.1706H87.8659C87.8007 59.4182 87.7287 59.6641 87.6517 59.9084C87.4374 60.1192 87.4374 60.1192 87.424 60.4486L87.4374 60.7516H87.2232C87.1026 60.9888 87.1026 60.9888 87.1093 61.3972L87.116 61.8057L86.7946 61.9111C86.7924 62.1699 86.7907 62.4288 86.7894 62.6876L86.7879 63.0047L86.7852 63.3192L86.7842 63.6198C86.784 63.6408 86.7838 63.6612 86.7837 63.681C86.7814 63.9334 86.7799 64.0957 86.9018 64.3354H87.4374L87.5445 64.6516H88.723V64.3354H89.5801L89.6872 64.0192H90.1157V63.703H90.6514L90.7585 63.3867H90.9728L91.0799 63.0705L91.7227 62.9651V62.7543H92.0441C92.0873 62.6431 92.1104 62.5837 92.1519 62.5428C92.1995 62.4958 92.2713 62.4733 92.4257 62.4249L92.6869 62.3327V62.0165C93.068 61.9522 93.4028 61.8501 93.7582 61.7003V61.3841H94.0796L94.1867 61.1733L94.4613 61.1074L94.7224 61.0679V60.7516H95.3652V60.4354H95.6866V60.1192H96.3294V59.803H96.9722V59.4868C97.3436 59.5298 97.4892 59.4986 97.8091 59.2957C98.0916 59.105 98.3044 58.9949 98.6193 58.8807L99.0077 58.749V58.5381L100.293 58.4327C100.284 58.6785 100.285 58.9248 100.293 59.1706L100.293 59.1706C100.519 59.4545 100.519 59.4545 100.54 59.7032L100.548 59.9483L100.559 60.2162C100.563 60.3462 100.567 60.4761 100.572 60.6061C100.574 60.6622 100.576 60.7184 100.578 60.7745L100.588 61.0419L100.589 61.0562C100.597 61.3152 100.602 61.4638 100.722 61.7003H100.936L100.952 61.9271L100.976 62.2207C100.989 62.3803 100.994 62.4529 101.004 62.5249C101.012 62.585 101.023 62.6448 101.043 62.7543L101.257 62.8597L101.324 63.2352L101.365 63.5976H101.686V64.0192H102.007V64.3354H102.329V64.6516C102.458 64.6693 102.524 64.6784 102.59 64.6911C102.658 64.7044 102.726 64.7217 102.864 64.757L102.972 64.9678L103.293 65.0205L103.614 65.0732L103.721 65.284C104.023 65.2884 104.324 65.2918 104.625 65.2943L104.994 65.2972L105.36 65.3026L105.709 65.3046C105.888 65.3065 105.968 65.3073 106.047 65.3036C106.112 65.3007 106.176 65.2947 106.293 65.284C106.395 65.1622 106.443 65.1043 106.505 65.0742C106.561 65.0469 106.628 65.0422 106.755 65.0333C106.82 65.0289 106.884 65.0258 106.948 65.0227C107.241 65.0086 107.523 64.9951 107.792 64.8624V64.6516H108.542V64.3354H109.185V64.1246L109.828 64.0192L109.935 63.703H110.471L110.578 63.3867H111.114L111.221 63.0705L111.756 62.9651V62.7543L112.185 62.6489V62.3327H112.506V62.0165H113.149V61.7003H113.47C113.691 61.4649 113.691 61.4649 114.053 61.2853L114.053 61.2853C114.327 61.1337 114.559 60.999 114.756 60.7516L114.863 60.4354H115.185V60.1192C115.339 60.1192 115.433 60.1192 115.518 60.093C115.648 60.0531 115.76 59.9522 116.042 59.6976V59.4868H116.363L116.47 59.1706H116.792V58.8544H117.113V58.5381L117.756 58.4327L117.863 59.4868H118.184V59.803H118.506V60.1192L118.72 60.2246C118.859 60.4035 119.002 60.5788 119.148 60.7516C119.489 61.0143 119.654 61.0664 120.093 61.0876L120.434 61.0679V61.3841H121.827L121.934 61.7003C122.375 61.7046 122.815 61.7082 123.256 61.7106L123.795 61.7135C124.061 61.7161 124.326 61.7188 124.591 61.72L124.842 61.7209C125.126 61.7247 125.399 61.7187 125.684 61.7003C125.872 61.4741 125.872 61.4741 126.099 61.4559L126.341 61.4458L126.602 61.4335L126.875 61.4236L127.412 61.3997L127.826 61.3841L127.933 61.0679H129.005V60.7516C129.046 60.7525 129.086 60.7538 129.126 60.7551C129.39 60.7635 129.609 60.7705 129.862 60.6462V60.4354H130.612V60.1192L130.667 60.1214C131.011 60.1348 131.295 60.1459 131.623 60.0138L131.79 59.9084C131.683 60.1192 131.683 60.1192 131.676 60.4486L131.683 60.7516H131.362V61.3841H131.04V62.1219H130.719V62.7543L130.397 62.8597L130.29 63.703L129.969 63.8084V64.3354L129.647 64.4408V65.0732H129.433C129.389 65.1601 129.36 65.2164 129.341 65.2757C129.306 65.3849 129.304 65.5044 129.296 65.844L129.293 66.0614C129.275 66.4642 129.266 66.7726 129.494 67.1241C129.755 67.2867 129.755 67.2867 130.121 67.3316L130.525 67.3196C130.768 67.315 131.012 67.3056 131.254 67.2867C131.303 67.239 131.329 67.2129 131.345 67.1814C131.364 67.1432 131.367 67.0971 131.374 66.9952L131.372 66.756L131.371 66.4976L131.368 66.2261L131.365 65.6954L131.362 65.284H131.683V64.6516H132.004V64.0192L132.326 63.9138C132.353 63.6668 132.389 63.4206 132.433 63.1759L132.647 63.0705V62.3327H132.969V61.7003L133.29 61.5949V61.0679H133.611L133.651 60.6528C133.669 60.4244 133.669 60.4244 133.718 60.2246L133.933 60.1192V59.6976L134.254 59.5922V58.8544H134.575V58.1165H134.897L135.004 57.4841H135.218L135.325 56.8517H135.54C135.553 56.8224 135.566 56.7933 135.58 56.7641C135.679 56.5487 135.777 56.336 135.861 56.1138L135.968 55.5868H137.897V55.2706H140.146L140.253 54.9544C140.439 54.9584 140.624 54.9622 140.809 54.9647L141.037 54.9676C141.315 54.9742 141.582 54.9694 141.86 54.9544C142.16 54.7244 142.16 54.7244 142.483 54.7037C142.542 54.7003 142.6 54.6974 142.658 54.6944C143.045 54.6748 143.413 54.6561 143.789 54.5328V54.322L144.432 54.4274C144.388 54.4702 144.362 54.4956 144.343 54.5252C144.315 54.5686 144.3 54.621 144.264 54.7502L144.217 54.9544H143.896V55.5868H143.575V55.903H143.36C143.296 56.116 143.224 56.3269 143.146 56.5355L142.932 56.6409C142.903 56.7191 142.887 56.7631 142.875 56.8082C142.859 56.8662 142.848 56.9259 142.825 57.0625C142.756 57.8486 142.761 58.4245 143.253 59.0652C143.467 59.1706 143.467 59.1706 143.669 59.1825L143.91 59.1809L144.172 59.1798L144.445 59.1772C144.762 59.1755 145.079 59.1734 145.396 59.1706L145.503 58.8544H146.146L146.253 58.6436C146.706 58.5408 147.032 58.3505 147.431 58.1165V57.8003H148.074V57.4841H148.396L148.503 57.1679H148.717L148.824 56.8517H149.038C149.194 56.448 149.406 56.312 149.788 56.1138V56.8517H150.11V57.3787L150.431 57.4841V57.8003H150.752V58.1165H151.074V58.4327C151.265 58.5311 151.347 58.5733 151.393 58.6402C151.428 58.6905 151.443 58.7548 151.469 58.8675L151.502 59.0652H151.824V59.276L152.145 59.4868L152.145 59.487C152.306 59.6581 152.306 59.6581 152.467 59.803H152.788V60.1192H153.109V60.4354L153.431 60.5408C153.571 60.7182 153.714 60.8939 153.859 61.0679H154.181V61.2787L154.716 61.3841V61.5949L155.145 61.7003V62.0165H155.788V62.3327L155.788 62.3327C156.053 62.369 156.053 62.369 156.323 62.4381L156.43 62.6489C156.89 62.9699 157.34 63.243 157.89 63.3736L158.145 63.3867V63.5976C158.359 63.703 158.359 63.703 158.747 63.7095L159.109 63.703V63.9138C159.323 64.0192 159.323 64.0192 159.711 64.0258L160.073 64.0192V64.23C160.177 64.281 160.23 64.3073 160.287 64.3221C160.347 64.3378 160.411 64.3404 160.542 64.3457L160.836 64.342L161.132 64.3391L161.358 64.3354L161.466 64.6516C161.741 64.6598 162.017 64.6688 162.293 64.6788L162.631 64.6911L162.966 64.701L163.286 64.7134C163.573 64.7179 163.573 64.7179 163.823 64.757C163.949 64.8817 164.001 64.9326 164.063 64.9591C164.106 64.9774 164.154 64.9841 164.235 64.9953L164.479 64.9968L164.755 64.9998L165.054 64.9995C165.262 65.0004 165.47 65.0012 165.677 65.0018C166.006 65.0011 166.334 65.0008 166.663 65.0033C166.877 65.005 167.091 65.006 167.305 65.0063L167.612 65.0061L167.91 65.009L168.187 65.0071C168.431 65.0073 168.431 65.0073 168.643 64.9678C168.874 64.7878 168.955 64.7131 169 64.4243L168.992 64.1773C168.985 63.8752 168.956 63.6777 168.858 63.3867H165.644L165.537 63.0705H162.965V62.7543L162.641 62.7387L162.222 62.7148C161.817 62.6985 161.817 62.6985 161.466 62.6489L161.358 62.4381H160.287V62.1219C160.035 62.0577 159.786 61.9869 159.537 61.9111C159.323 61.7003 159.323 61.7003 158.988 61.6871L158.68 61.7003V61.3841L158.68 61.384C158.415 61.3478 158.415 61.3477 158.145 61.2787L158.037 61.0679C157.796 60.9238 157.591 60.853 157.314 60.7912L157.073 60.7516V60.5408C156.892 60.4769 156.714 60.4061 156.538 60.33L156.43 60.1192H156.002V59.803L155.68 59.6976C155.648 59.6715 155.617 59.6457 155.586 59.6204C155.368 59.4422 155.179 59.2869 154.897 59.1969L154.716 59.1706V58.8544H154.395V58.5381H154.074V58.2219H153.752V58.0111L153.458 57.7674C153.339 57.6753 153.223 57.5809 153.109 57.4841C152.967 57.308 152.824 57.1323 152.681 56.9571L152.359 56.8517V56.6409H152.145V56.3247L151.824 56.2193L151.717 55.6922L151.395 55.5868V54.9544H151.074V52.0031H149.574C149.467 52.1085 149.467 52.1085 149.46 52.4313L149.467 52.7409H149.253C149.188 52.919 149.116 53.0947 149.038 53.2679L148.824 53.3733V54.0058H148.503V54.322H148.181C148.046 54.5616 147.962 54.7645 147.9 55.0335L147.86 55.2706H147.538V55.5868H147.217L147.11 55.7976L146.789 55.903V56.2193L146.253 56.3247V56.5355H145.824V56.8517H145.289L145.182 56.5355H145.503C145.638 56.2959 145.722 56.0929 145.784 55.824L145.824 55.5868H146.146V55.2706H146.467V54.849H146.789V54.5328H147.11V54.2166H147.324L147.538 53.9004C147.719 53.7987 147.898 53.6935 148.074 53.5841V53.2679H148.396L148.503 52.9517H148.824V52.6355H149.145C149.148 52.589 149.152 52.5428 149.155 52.4969C149.186 52.0417 149.215 51.6107 148.998 51.1928C148.86 51.1248 148.768 51.0798 148.672 51.0522C148.481 50.998 148.271 51.0122 147.646 51.0544L147.538 51.3707H147.217C147.006 51.6187 147.006 51.6187 146.614 51.6473L146.253 51.6869L146.146 52.0031H145.182V52.3193H144.003L143.896 52.6355L143.622 52.6281L143.267 52.6223C143.076 52.6183 142.988 52.6165 142.9 52.6189C142.825 52.6209 142.75 52.626 142.61 52.6355C142.512 52.7532 142.461 52.8144 142.396 52.8465C142.325 52.8812 142.237 52.8816 142.055 52.8825C142.018 52.884 141.982 52.8855 141.945 52.8869C141.594 52.9008 141.246 52.9146 140.896 52.9517C140.718 53.0768 140.627 53.1405 140.526 53.1738C140.421 53.2083 140.305 53.21 140.07 53.2134C140.002 53.2158 139.934 53.2177 139.867 53.2196C139.452 53.2311 139.046 53.2425 138.646 53.3733V53.5841L137.04 53.4787V53.2679H137.254V52.6355H137.575V52.0031H137.897V51.3707H138.218V50.7382H138.539V50.0004H138.861V49.368H139.182C139.249 49.1904 139.321 49.0149 139.396 48.8409C139.507 48.7317 139.561 48.6791 139.589 48.6153C139.614 48.5559 139.618 48.4868 139.624 48.3535L139.611 48.1031H139.932V47.4707L140.253 47.3653V46.8383L140.575 46.7329V46.1004H140.896V45.468H141.218V44.7302H141.432L141.539 44.0978L141.86 43.9923V43.2545H142.182V42.6221H142.396L142.503 42.3059L143.146 42.2005L143.253 41.2518H143.467C143.524 41.0856 143.55 41.0067 143.565 40.9257C143.579 40.8526 143.582 40.7778 143.589 40.6355L143.588 40.2966C143.588 40.2565 143.589 40.2177 143.589 40.1801C143.592 39.9183 143.595 39.7103 143.467 39.46L143.146 39.3546L143.039 39.0383C142.966 39.0372 142.895 39.0342 142.825 39.0312C142.526 39.0185 142.246 39.0066 141.968 39.1437V39.3546L141.539 39.46V39.987H141.218V40.6194L140.896 40.7248V41.3572H140.575L140.481 41.68C140.441 41.8183 140.4 41.9566 140.361 42.0951C140.296 42.3449 140.226 42.5869 140.146 42.8329L139.932 42.9383V43.5707H139.611C139.593 43.7244 139.584 43.8027 139.571 43.8803C139.557 43.9608 139.539 44.0406 139.504 44.2032L139.289 44.3086V44.941L138.968 45.0464V45.5734H138.646C138.538 45.8542 138.43 46.1346 138.325 46.4166C138.258 46.629 138.188 46.8404 138.111 47.0491L137.897 47.1545V47.5761H137.682C137.529 47.9346 137.374 48.2875 137.2 48.6367C137.092 48.8449 136.985 49.0535 136.879 49.2626L136.718 49.5788C136.606 49.7869 136.499 49.9978 136.397 50.2112C136.327 50.4576 136.256 50.7036 136.182 50.949L135.968 51.0544V51.4761H135.754C135.709 51.5649 135.683 51.6164 135.667 51.6708C135.646 51.7454 135.644 51.8258 135.64 52.0163L135.647 52.3193H135.325V52.9517H135.004V53.5841H134.79C134.683 53.6768 134.627 53.7245 134.575 53.7754C134.52 53.8294 134.468 53.887 134.361 54.0058L134.254 54.322H131.04V54.6382H128.469L128.362 54.849L128.04 54.9544V55.2706H127.719V56.2193H128.04V56.8517H129.647V56.2193H132.861L132.969 55.903H133.611C133.536 56.0414 133.465 56.1827 133.397 56.3247C133.388 56.3555 133.38 56.3853 133.371 56.4141C133.284 56.7217 133.227 56.9213 132.955 57.1415L132.754 57.2733V57.4841H132.111L132.004 57.8003L131.04 57.9057V58.2219H130.397V58.5381H129.54L129.433 58.8544H128.79L128.683 59.1706H127.719V59.4868L127.492 59.4794L127.197 59.4736C126.903 59.4662 126.903 59.4662 126.648 59.4868L126.648 59.4868C126.543 59.6127 126.497 59.669 126.437 59.6963C126.389 59.7183 126.332 59.7214 126.229 59.7269L125.976 59.7312L125.69 59.7375L125.381 59.7412C125.055 59.7476 124.729 59.7537 124.403 59.7585C124.176 59.7618 123.949 59.7655 123.722 59.7696C123.054 59.782 122.387 59.7933 121.72 59.803L121.613 59.4868H120.755V59.1706H120.434V58.9598L120.113 58.8544V58.6436L119.791 58.5381V58.2219H119.47C119.474 57.976 119.474 57.73 119.47 57.4841L119.363 57.3787C119.3 57.1306 119.228 56.8844 119.148 56.6409L118.827 56.5355V56.2193H116.792V56.5355H116.256L116.149 56.8517H115.935L115.827 57.1679H115.613L115.506 57.4841H115.292L115.185 57.8003H114.863V58.2219C114.406 58.2219 114.256 58.2747 113.899 58.5381V58.8544H113.578V59.1706H113.256L113.149 59.4868H112.828V59.803H112.292L112.185 60.0138L111.864 60.1192V60.4354H111.542C111.499 60.5466 111.476 60.6061 111.434 60.647C111.387 60.694 111.315 60.7165 111.16 60.7648L110.899 60.857V61.0679H110.578L110.471 61.2787L110.196 61.3445L109.935 61.3841V61.7003L109.292 61.8057V62.0165L108.65 62.2273V62.4381H108.221L108.114 62.6489L107.732 62.7148L107.364 62.7543L107.257 63.0705H106.614L106.507 63.2813L104.15 63.3867V63.1759L103.614 63.0705V62.7543H103.293V62.4381H102.972V61.8057L102.65 61.7003L102.658 61.4771L102.664 61.1864C102.668 61.032 102.669 60.9601 102.667 60.8883C102.665 60.8257 102.66 60.7632 102.65 60.6462C102.416 60.4575 102.416 60.4575 102.402 60.2083L102.392 59.9306L102.379 59.6301L102.369 59.3155C102.357 59.0176 102.345 58.7197 102.335 58.4218L102.329 58.2219H102.007L102.034 57.8925C102.003 57.4179 101.89 57.2103 101.579 56.8517H101.257V56.5355H98.7934L98.6863 56.8517H97.8292L97.7221 57.1679H97.0793V57.4841H96.5436L96.4365 57.8003L95.7937 57.9057L95.6866 58.2219H95.1509L95.0438 58.4327L94.7693 58.4986L94.5081 58.5381L94.401 58.8544H94.0796V59.1706H93.4368V59.4868C93.0996 59.5605 92.7912 59.6724 92.4726 59.803V60.1192L91.8298 60.2246V60.4354H91.5084L91.4013 60.7516L90.8656 60.857V61.0679H90.5442L90.4371 61.3841C90.0488 61.3841 89.893 61.4815 89.5801 61.7003L89.4729 62.0165H89.0444L89.1515 61.0679H89.4729C89.5048 60.8214 89.5407 60.5754 89.5801 60.33L89.6872 60.2246C89.7544 59.9775 89.8259 59.7315 89.9015 59.4868L90.1157 59.3814L90.1693 59.0191L90.2228 58.6436C90.4371 58.4327 90.4371 58.4327 90.4505 58.1034L90.4371 57.8003L90.7585 57.6949V56.8517H91.0799V55.903H91.4013V54.9544H91.7227V53.9004H92.0441V52.6355H92.3655V49.368L92.1512 49.2626C92.1394 49.1781 92.1328 49.131 92.1222 49.0848C92.1087 49.0265 92.0889 48.9696 92.0441 48.8409C91.8533 48.6608 91.7353 48.5495 91.5962 48.4814C91.3709 48.3711 91.0901 48.3742 90.3547 48.3823L89.9684 48.393C89.5175 48.3996 89.0667 48.407 88.6159 48.4193L88.5087 48.7355H87.8659L87.7588 49.0518H87.2232L87.116 49.368L86.4732 49.4734V49.6842L85.8304 49.7896V50.1058H85.2948L85.1876 50.3166L84.8662 50.422V50.7382C84.4119 50.7382 84.0565 50.9083 83.728 51.2191C83.5549 51.3972 83.3791 51.4814 83.1521 51.5815V51.0544H82.8307V50.7382H82.6165V50.5274C82.3438 50.0537 82.0518 49.7101 81.5452 49.4734C81.3663 49.4038 81.1877 49.3336 81.0095 49.2626L80.7952 49.0518C80.5751 49.0389 80.3547 49.0275 80.1342 49.0281L79.8779 49.032C79.5753 49.0322 79.2765 49.0384 78.974 49.0518C78.8459 49.1886 78.8459 49.1886 78.5388 49.3219L78.2241 49.4734V49.7896L77.9027 49.895V50.422H77.5813V50.7382H77.2599C77.223 50.9988 77.223 50.9989 77.1528 51.2651L77.1527 51.2652L76.9385 51.3707V51.6869L76.6171 51.7923V52.3193H76.2957V52.7409H75.9743V53.2679H75.6529L75.5458 53.6895H75.3315L75.2244 54.0058L75.0101 54.1112L74.9432 54.3813L74.903 54.6382H74.5816V54.9544H74.3673C74.1898 55.2059 74.0611 55.4312 73.9723 55.7252L73.9388 55.903H73.6174V56.2193H73.296V56.5355H73.0817L72.9746 56.8517H72.7603C72.6481 56.9458 72.5912 56.9936 72.5383 57.0454C72.4839 57.0987 72.4337 57.1564 72.3318 57.2733V57.5895C71.9374 57.7189 71.9374 57.7189 71.4748 58.2219L71.3676 58.5381H71.1534C71.1258 58.5863 71.1012 58.6327 71.0776 58.6771C70.9665 58.8867 70.8796 59.0505 70.6177 59.131C70.3447 59.1814 70.2544 59.2768 70.082 59.4868L69.9749 59.803H69.6535V59.0652H69.9749V56.8517L69.7606 56.7463L69.6937 56.4762L69.6535 56.2193H69.3321L69.225 55.903H67.0823V56.2193H66.2253L66.1181 56.5355H65.6896L65.5825 56.7463C65.4387 56.7772 65.2957 56.8125 65.154 56.8517L65.0468 57.1679H64.7254V57.4841C64.5384 57.4841 64.4602 57.4841 64.3959 57.514C64.3496 57.5354 64.3105 57.5723 64.2433 57.6356L64.0826 57.8003L63.7612 57.9057V58.2219H63.4399V58.5381H63.1185V58.8544H62.6899V59.1706H62.3685V59.4868H62.0471L61.94 59.6976L61.6186 59.803L61.5115 60.1192L61.1901 60.2246L61.083 57.1679L60.8687 57.0625L60.8017 56.687L60.7616 56.3247L60.4402 56.2193C60.4402 55.903 60.4402 55.903 60.3196 55.7581L60.1188 55.5868C60.0806 55.5532 60.0434 55.5199 60.0069 55.487C59.7685 55.2728 59.5548 55.0808 59.2282 54.9939L59.0474 54.9544L58.9403 54.6382H58.0833V54.322L55.5121 54.2166L55.8335 53.9004V53.5841H56.1549V53.2679H56.4763V52.9517H56.6905L56.7977 52.6355H57.0119C57.123 52.2779 57.2068 52.1239 57.5074 51.8845L57.7619 51.6869V51.3707H58.0833V51.0544H58.2975L58.4046 50.6328H58.726C58.7691 50.3364 58.825 50.2195 59.0407 50.0004C59.2617 49.7896 59.2617 49.7896 59.3956 49.5524L59.476 49.368H59.7974V49.0518H60.0116C60.1891 48.8003 60.3178 48.575 60.4067 48.281L60.4402 48.1031H60.7616V47.7869L61.083 47.6815V47.1545H61.4043V46.8383L61.7257 46.7329V46.2058H62.0471C62.2614 45.8896 62.2614 45.8896 62.3284 45.6591L62.3685 45.468H62.6899V45.0464H62.9042L63.0113 44.5194H63.3327C63.4561 44.2853 63.5659 44.0522 63.6675 43.8079L63.7612 43.5707H63.9755C64.0405 43.3927 64.1125 43.217 64.1898 43.0437L64.404 42.9383V42.6221L64.7254 42.5167V41.8843H65.0468V41.4626H65.2611L65.3682 40.9356H65.6896C65.7077 40.8083 65.7169 40.7431 65.7298 40.6788C65.7433 40.6114 65.7608 40.5448 65.7968 40.4086L66.011 40.3032L66.0646 40.0397L66.1181 39.7762L66.3324 39.6708L66.4395 39.3546L66.6538 39.2492V38.7221H66.9752V37.9843H67.2966V37.3519H67.618C67.683 37.1738 67.755 36.9981 67.8323 36.8249L68.0465 36.7194V36.087H68.3679V35.6654H68.5822C68.6463 35.4175 68.7182 35.1715 68.7964 34.9276L69.0107 34.8222V34.1897H69.3321V33.4519H69.6535V32.8195L69.9749 32.7141V31.8708H70.2963V31.2384L70.6177 31.133V30.2898H70.9391V29.2357H71.2605V28.2871H71.5819V27.3385H71.9033C72.0104 27.1277 72.0104 27.1277 72.0171 26.7456L72.0104 26.3898H72.2247C72.3318 26.179 72.3318 26.179 72.3423 25.9048L72.3385 25.5861L72.3356 25.2658L72.3318 25.0196L72.6532 24.9142V23.7547L72.9746 23.6493V22.0682H73.1889C73.2463 21.9552 73.2729 21.9028 73.2882 21.8473C73.3013 21.7992 73.306 21.7487 73.3146 21.6547L73.3224 21.4099C73.3296 21.2275 73.3364 21.0451 73.3429 20.8627L73.3514 20.5841L73.3625 20.3163C73.3658 20.0752 73.3658 20.0752 73.4031 19.8548C73.5319 19.6647 73.5833 19.5888 73.6094 19.5051C73.6267 19.4496 73.6329 19.3906 73.6432 19.2924L73.6417 18.9995L73.6417 18.667L73.6383 18.3087C73.6374 17.9301 73.6361 17.5515 73.6336 17.1729C73.6317 16.9093 73.6302 16.6456 73.6292 16.3819C73.6266 15.6071 73.6228 14.8323 73.6174 14.0575H73.296V11.7386L73.0817 11.6332L73.0449 11.373C73.0432 11.3414 73.0416 11.3098 73.04 11.2783C73.0262 11.0086 73.0126 10.7421 72.9746 10.4738L72.7603 10.3684L72.7068 9.95333C72.69 9.72654 72.69 9.72647 72.6532 9.52532L72.6532 9.52513C72.4013 9.3186 72.4013 9.3186 72.3787 8.93881L72.3318 8.57649C72.1616 8.33858 72.1616 8.33856 72.0774 8.04953L72.0774 8.04947C72.037 7.92713 72.018 7.8697 71.9945 7.81421C71.9736 7.76511 71.9492 7.71753 71.9033 7.62785L71.5819 7.52244V6.99542L71.2605 6.89002C71.1955 6.45496 71.0421 6.11718 70.832 5.73057H70.6177V5.30895H70.2963V4.99274H69.9749V4.67653H69.7606L69.5464 4.0441H69.3321V3.83329C69.0806 3.60642 68.8754 3.43686 68.5487 3.33262L68.3679 3.30627V3.09546L68.0465 2.99006V2.77925C67.9437 2.76565 67.8906 2.75863 67.8388 2.74627C67.7834 2.73306 67.7295 2.71376 67.618 2.67384L67.5109 2.35763H66.9752V2.04142H66.3324V1.7252H65.6896V1.40899H65.0468V1.09278C64.7959 1.06534 64.5458 1.02959 64.2969 0.987374C64.1821 0.874424 64.1288 0.821992 64.0648 0.794487C64.0094 0.770656 63.9459 0.765535 63.8274 0.755979L63.5336 0.76339L63.2381 0.769155L63.0113 0.776566V0.460353L62.7255 0.448412L62.3484 0.427414C61.977 0.415192 61.977 0.415192 61.6186 0.354948C61.307 0.152025 61.1167 0.0425531 60.7408 0L60.3504 0.00116444C60.1237 0.000481175 59.8971 0.000278295 59.6704 0.00208039C59.5085 0.00346629 59.3466 0.00431105 59.1847 0.00462961C58.8463 0.00479101 58.508 0.00533819 58.1697 0.00730308C57.7305 0.0103007 57.2913 0.012835 56.852 0.0134136C56.5088 0.0137814 56.1656 0.0143984 55.8224 0.0155044L55.3309 0.0173251C55.0958 0.0179084 54.8607 0.0186302 54.6256 0.0201654ZM69.6535 59.803H69.3321V60.1192H69.6535V59.803ZM82.1879 55.1652L82.2951 54.849H82.5093V55.903H82.1879V57.3787L81.8665 57.4841L81.8732 57.8991C81.8755 58.0419 81.8742 58.1848 81.8665 58.3273L81.7594 58.4327C81.6693 58.7516 81.6693 58.7516 81.5452 59.0652L81.2238 59.1706V59.4868L81.0095 59.5922L80.9425 59.8623L80.9024 60.1192H80.581V60.4354L80.3667 60.5408C80.2266 60.7187 80.0837 60.8943 79.9382 61.0679L79.6168 61.1733V61.3841L79.2954 61.4895V61.7003L78.974 61.8057V62.0165L78.5455 62.1219V62.4381H78.0098V62.6489L77.5813 62.7543V63.0705C77.3202 63.11 77.3201 63.1101 77.0459 63.1759L77.0456 63.1759L76.9385 63.3867L76.4028 63.4921L76.2957 63.703L75.76 63.8084L75.6529 64.0192L75.0101 64.1246L74.903 64.3354L74.7088 64.3716C74.6869 64.3732 74.6651 64.3747 74.6433 64.3762C74.442 64.39 74.2453 64.4036 74.0459 64.4408L73.9388 64.6516L73.7249 64.6915C73.4742 64.7101 73.2244 64.7286 72.9746 64.757C72.7603 64.8624 72.5641 64.9145 72.3318 64.9678L72.6532 64.3354H72.9746C72.9459 64.0945 72.9343 63.9973 72.9696 63.9221C72.9936 63.8713 73.039 63.8306 73.1152 63.7623L73.296 63.5976C73.4782 63.2798 73.6071 63.0787 73.8986 62.8466L74.153 62.6489L74.2602 62.3327H74.5816V62.0165L74.8427 61.8057L75.1172 61.5949C75.1613 61.4259 75.182 61.3466 75.2234 61.2802C75.2599 61.2215 75.3126 61.1728 75.4118 61.081C75.6762 60.8354 75.9346 60.5861 76.1886 60.33C76.3264 60.1505 76.4683 59.9738 76.6171 59.803H76.9385V59.5922L77.2599 59.4868V59.1706C77.3938 58.9861 77.3938 58.9861 77.5813 58.8544H77.9027V58.5381L78.1169 58.4327L78.2241 58.1165H78.5455V57.8003L79.0811 57.6949C79.157 57.359 79.157 57.359 79.4561 57.214L79.7239 57.0625L79.831 56.8517H80.1524V56.5355H80.4738V56.3247L80.9024 56.2193V55.903L81.2238 55.7976C81.3642 55.6548 81.5073 55.5144 81.6523 55.376C81.8311 55.3065 82.0097 55.2363 82.1879 55.1652ZM67.2966 58.1165V57.8003H68.3679L68.0465 57.9057C68.0511 58.1165 68.0509 58.3274 68.0465 58.5381L67.9394 58.6436C67.872 58.8557 67.8005 59.0665 67.7251 59.276L67.5109 59.3814L67.4573 59.5922L67.4037 59.803C67.3049 59.8516 67.2517 59.8778 67.2125 59.9178C67.1667 59.9645 67.1401 60.0299 67.0823 60.1719L66.9752 60.4354C66.8799 60.4823 66.8231 60.5103 66.777 60.5505C66.7089 60.6099 66.6641 60.6962 66.5534 60.9097L66.5533 60.9099C66.456 61.1101 66.456 61.1101 66.3324 61.2787L66.011 61.3841V61.7003L65.7968 61.8057L65.6896 62.1219H65.3682V62.4381H65.0468V62.7543H64.7254V63.0705H64.404V63.3867H64.0826V63.703H63.7612V64.0192H63.4399V64.3354C63.1788 64.3749 63.1787 64.3749 62.9044 64.4407L62.9042 64.4408L62.7971 64.6516H62.4757V64.8624C62.2635 64.9718 62.0487 65.0764 61.8329 65.1786C61.6178 65.2465 61.4033 65.3162 61.1901 65.3894L61.083 65.6002L60.8888 65.6365C60.8668 65.638 60.8449 65.6395 60.8231 65.641C60.6219 65.6549 60.4252 65.6684 60.2259 65.7056L60.1188 65.9165H59.7974V65.1786H60.0116L60.0518 64.7636C60.0689 64.5352 60.0689 64.5352 60.1187 64.3355L60.1188 64.3354L60.333 64.23L60.4402 63.9138L60.7616 63.5976C60.863 63.4187 60.9696 63.2424 61.083 63.0705H61.4043V62.7543L61.5609 62.6267C61.5791 62.6158 61.5969 62.6052 61.6144 62.5948C61.9271 62.4084 62.1271 62.2892 62.2815 61.9374L62.3685 61.7003L62.7971 61.5949C62.8646 61.4177 62.9361 61.242 63.0113 61.0679L63.2859 60.9954L63.547 60.9624L63.6541 60.7516H63.9755V60.4354L64.2969 60.33L64.404 60.1192H64.7254V59.803H65.0468V59.5922L65.2193 59.4481C65.5509 59.2182 65.8642 58.9988 66.1516 58.716L66.3324 58.5381L66.6538 58.4327C66.7587 58.3252 66.8658 58.2197 66.9752 58.1165H67.2966ZM47.0487 59.803L47.1558 59.4868L47.2629 59.803H47.0487ZM45.5488 60.1192C45.7641 60.091 45.9784 60.0549 46.1916 60.0138C46.508 59.764 46.508 59.764 46.9415 59.803V60.1192H46.6201V60.4354H46.2987V60.7516H45.9773V60.9624C45.686 61.2809 45.3611 61.5489 45.0132 61.8057L44.7721 61.9111C44.6826 61.9614 44.6358 61.9877 44.6026 62.0258C44.5663 62.0676 44.5463 62.1234 44.5043 62.2405L44.4775 62.4381L44.4774 62.4381C44.2699 62.4776 44.2699 62.4776 44.049 62.5435L43.9418 62.7543H43.6204V63.0705H43.299V63.3867H42.9776V63.703H42.6562V64.0192H42.3349V64.3354C42.0046 64.4618 41.6853 64.5965 41.3707 64.757V64.9678L41.0493 65.0732C40.9086 65.2506 40.7658 65.4263 40.6207 65.6002H40.2993V65.9165C40.118 66.1513 39.977 66.2331 39.6967 66.3447L39.4423 66.4435L39.3352 66.6543H39.0138V66.9705H38.6924V67.2867H38.371V67.6029C38.1274 67.736 37.9212 67.8185 37.6478 67.8796L37.4068 67.9191V68.1299C37.1775 68.4057 37.0364 68.5359 36.6836 68.6306L36.4426 68.657V68.8678L36.1212 68.9732L36.0141 69.184H35.6927V69.5002H35.3713V69.8164C35.1165 69.9975 34.8893 70.1169 34.5879 70.2051L34.4071 70.238V70.4488L34.0857 70.5542V70.8705H33.4429V71.1867H33.1215V71.5029H32.693V71.8191C32.4855 71.8586 32.4854 71.8586 32.2647 71.9244L32.2645 71.9245L32.1573 72.1353H31.7288V72.4515H31.4074V72.7677C31.1481 72.8741 30.8954 72.9722 30.624 73.0444L30.4432 73.0839V73.4002H30.1218L30.0147 73.7164L29.479 73.8218V74.0326L29.1576 74.138L29.0505 74.3488L28.776 74.4147L28.5148 74.4542V74.665L28.0863 74.7704V75.0866H27.5506V75.2974L27.1221 75.4028V75.7191H26.8007L26.6936 76.0353H26.1579V76.3515C25.8986 76.4578 25.646 76.556 25.3745 76.6282L25.1937 76.6677V76.9839C24.9326 77.0234 24.9326 77.0234 24.6581 77.0893L24.5509 77.3001L24.2296 77.4055L24.1224 77.6163L23.5868 77.7217L23.4796 77.9325H23.1582V78.2488L22.5154 78.3542V78.565L22.194 78.6704C22.0891 78.7779 21.982 78.8835 21.8726 78.9866H21.5513V79.3028H20.9085V79.619H20.2657V79.8298L19.8371 79.9352V80.146C19.6561 80.21 19.4776 80.2808 19.3015 80.3568L19.1943 80.5677H18.5516V80.8839H17.9088V81.2001C17.6476 81.2396 17.6476 81.2396 17.3731 81.3055L17.266 81.5163H16.6232V81.8325C16.3086 81.872 16.3085 81.872 15.9807 81.9379L15.9804 81.9379L15.8733 82.1487L15.3376 82.2541L15.2305 82.4649H14.5877V82.2541L14.9091 82.1487V81.9379L15.2305 81.8325V81.5163H15.5519V81.2001H15.8733V80.8839L16.0875 80.7785C16.2254 80.599 16.3683 80.4232 16.5161 80.2514H16.8374V79.8298C16.904 79.7333 16.9369 79.6855 16.9776 79.6458C17.0176 79.6068 17.065 79.5755 17.1588 79.5136H17.4802V79.3028L17.8016 79.092L17.9088 78.7758H18.123V78.565H18.4444V78.2488H18.873V77.9325H19.1943V77.6163C19.2611 77.5243 19.2946 77.4782 19.3347 77.4388C19.3749 77.3991 19.4218 77.3662 19.5157 77.3001H19.8371V76.9839H20.1585V76.6677H20.4799V76.3515H20.8013V76.1407L21.1227 76.0353V75.8245C21.3407 75.5862 21.5719 75.3865 21.8258 75.1854L22.0869 74.9812L22.087 74.9811C22.252 74.8011 22.2521 74.801 22.4083 74.665H22.7297V74.4542L23.1582 74.3488V74.0326C23.225 73.9406 23.2585 73.8945 23.2985 73.855C23.3388 73.8154 23.3857 73.7824 23.4796 73.7164H23.801V73.4002H24.1224V73.1894L24.4438 73.0839V72.8731L24.7652 72.7677V72.5569C25.0183 72.3909 25.2781 72.2522 25.5486 72.1155L25.7294 72.0299V71.8191H26.0508V71.6083C26.2427 71.3843 26.2427 71.3843 26.4793 71.1867L26.8007 71.0813C26.9056 70.9737 27.0127 70.8682 27.1221 70.7651H27.4435V70.4488H27.7649V70.1326L28.0863 70.0272L28.1934 69.8164L28.622 69.711L28.7291 69.5002H29.0505V69.2894L29.6933 69.0786V68.8678L30.0147 68.7624C30.0598 68.6482 30.082 68.5921 30.1209 68.5525C30.1584 68.5142 30.2116 68.4913 30.316 68.4462C30.3349 68.4376 30.3539 68.4291 30.3728 68.4206C30.5779 68.3285 30.7809 68.2374 30.9789 68.1299L31.086 67.9191L31.3605 67.8533L31.6217 67.8137V67.6029L31.9431 67.4975C32.0318 67.2732 32.0318 67.2732 32.2444 67.1813C32.2634 67.1728 32.2824 67.1642 32.3014 67.1557C32.5065 67.0636 32.7094 66.9725 32.9072 66.8651L33.0144 66.6543L33.3425 66.5884L33.6572 66.5489V66.2327L33.9786 66.1273L34.0857 65.9165H34.7285V65.7056C34.9095 65.6417 35.0881 65.5709 35.2641 65.4948L35.3713 65.284H35.6927L35.7998 64.9678H36.3355V64.6516H36.9783V64.3354H37.621V64.0192C37.8821 63.9797 37.8822 63.9796 38.1566 63.9138L38.1567 63.9138C38.247 63.6802 38.247 63.6802 38.5049 63.5976C38.7847 63.4975 39.0619 63.3976 39.3352 63.2813C39.5461 63.0333 39.5461 63.0333 39.9378 63.0047L40.2993 62.9651V62.7543C40.4076 62.6757 40.4657 62.6335 40.5269 62.5963C40.5978 62.5531 40.6729 62.5167 40.835 62.4381C41.0497 62.3691 41.264 62.299 41.4778 62.2273L41.5849 62.0165H42.2277V61.7003H42.8705V61.3841L42.8706 61.384C43.0714 61.3445 43.0714 61.3445 43.299 61.2787C43.5086 61.0245 43.5086 61.0245 43.9017 61.0547L44.2632 61.0679V60.7516C44.5243 60.7121 44.5244 60.7121 44.7986 60.6463L44.7989 60.6462L44.906 60.4354H45.5488V60.1192ZM54.655 70.8705L54.7622 70.4488L54.8693 70.8705H54.655ZM122.381 72.7568C120.696 72.7591 119.012 72.7628 117.327 72.7677L117.22 73.0839C116.627 73.0817 116.034 73.08 115.441 73.0788L114.716 73.0774C114.359 73.076 114.002 73.0747 113.645 73.0741L113.307 73.0736L112.977 73.072L112.671 73.072C112.656 73.0719 112.64 73.0719 112.625 73.0718C112.367 73.0707 112.213 73.0701 111.971 73.1893V73.4002C111.492 73.398 111.013 73.3962 110.534 73.395L109.949 73.3936C109.66 73.3922 109.372 73.3909 109.084 73.3903L108.811 73.3899C108.739 73.3894 108.666 73.3871 108.594 73.3848C108.281 73.375 107.971 73.3652 107.685 73.5056V73.7164C107.295 73.712 106.905 73.7084 106.515 73.7061L106.038 73.7032C105.803 73.7005 105.569 73.6979 105.334 73.6967L105.112 73.6958C104.878 73.6939 104.775 73.6931 104.672 73.6969C104.591 73.6999 104.509 73.7058 104.364 73.7164C104.265 73.8366 104.215 73.8966 104.151 73.9267C104.087 73.9568 104.009 73.957 103.854 73.9574L103.48 73.9634L103.075 73.9729L102.225 73.9869L101.82 73.9963C101.612 73.9997 101.52 74.0011 101.428 74.007C101.355 74.0117 101.282 74.0191 101.15 74.0326C101.05 74.1538 101.001 74.213 100.938 74.2427C100.878 74.271 100.805 74.2725 100.663 74.2753L100.321 74.2833L99.948 74.2942C99.688 74.2999 99.4279 74.3059 99.1679 74.3124L98.7942 74.3229C98.4187 74.3312 98.0827 74.3483 97.7221 74.4542V74.665L94.9366 74.7704L94.8295 75.0866C94.5156 75.0823 94.2018 75.0788 93.8879 75.0763L93.5037 75.0734L93.1221 75.0681L92.758 75.066C92.5716 75.0642 92.4884 75.0634 92.4055 75.067C92.3386 75.07 92.2718 75.0759 92.1512 75.0866C92.0493 75.2094 92.0011 75.2675 91.9392 75.2965C91.8834 75.3225 91.8167 75.3249 91.6898 75.3294L91.3845 75.3374L91.0527 75.3483C90.8208 75.3539 90.589 75.3599 90.3572 75.3664L90.0253 75.3769C89.998 75.3776 89.9715 75.3781 89.9458 75.3787C89.6881 75.384 89.5033 75.3879 89.2586 75.5082V75.7191C88.9702 75.7169 88.6817 75.7151 88.3932 75.7139L88.04 75.7125L87.6893 75.7098L87.3545 75.7088C87.3239 75.7086 87.2944 75.7083 87.2659 75.708C87.0087 75.7051 86.8269 75.7031 86.5803 75.8245V76.0353H84.3306L84.2234 76.3515H82.1879V76.6677H80.2596V76.9839H78.3312L78.2241 77.3001H76.6171L76.5099 77.5109L76.2258 77.5509C76.1394 77.5556 76.0523 77.5578 75.965 77.56C75.6359 77.5683 75.305 77.5767 75.0101 77.7217V77.9325L74.713 77.9251L74.3271 77.9194C74.1194 77.9154 74.024 77.9135 73.9287 77.9159C73.8477 77.918 73.7669 77.9231 73.6174 77.9325C73.5153 78.055 73.4671 78.1129 73.4053 78.1424C73.3501 78.1687 73.2841 78.1725 73.1591 78.1796L73.113 78.1823C72.8506 78.1973 72.5925 78.2122 72.3318 78.2488C72.1697 78.3695 72.0952 78.4249 72.012 78.459C71.9412 78.4879 71.864 78.5014 71.7212 78.5263L71.4011 78.5781L71.0784 78.6317L70.8319 78.6704L70.7248 78.9866H69.5464L69.4392 79.3028H68.3679V79.619H67.0823V79.9352H66.1181L66.011 80.2514H65.0468V80.5676H64.0826V80.8839H63.2256L63.1184 81.2001C62.8685 81.1956 62.6185 81.1958 62.3685 81.2001L62.2614 81.3055C62.0092 81.3675 61.759 81.438 61.5115 81.5163L61.4043 81.8325H60.8687L60.7615 82.1487H60.2259L60.1187 82.4649H59.5831L59.476 82.7811H59.0474L58.8934 82.9327C58.8171 83.0217 58.7766 83.069 58.7256 83.0976C58.6679 83.1301 58.5966 83.1385 58.4448 83.1566L58.1904 83.2028L58.0832 83.4136L57.5476 83.519L57.4404 83.7298L57.1191 83.8352V84.1514H56.7977V84.4676H56.262L56.1549 84.7838H55.9406L55.8335 85.1H55.5121V85.4163H55.1907V85.8379H54.8693C54.8551 85.9305 54.8475 85.9802 54.8358 86.0289C54.8223 86.0854 54.8032 86.1405 54.7621 86.2595C54.7517 86.2686 54.7416 86.2775 54.7317 86.2861C54.5444 86.4497 54.4476 86.5343 54.4043 86.7954L54.4094 87.0447L54.4125 87.3154L54.4207 87.5968C54.4257 87.9241 54.4314 88.2512 54.4408 88.5784L54.8693 88.7892V89H56.1549V88.6838L56.4763 88.5784V88.0514H56.1549C56.1729 87.8977 56.182 87.8194 56.195 87.7418C56.2085 87.6613 56.2261 87.5815 56.262 87.4189L56.4763 87.3135V86.9973H56.7977V86.6811H57.1191V86.3649C57.2738 86.3649 57.3673 86.3649 57.4527 86.3387C57.5829 86.2987 57.6945 86.1979 57.9761 85.9433V85.7325H58.4046V85.4163H58.726V85.1H59.3688V84.7838L60.0116 84.6784V84.4676L60.6544 84.3622V84.1514L61.4043 84.046V83.8352L62.0471 83.7298V83.519C62.2256 83.5235 62.4043 83.5233 62.5828 83.519L62.6899 83.4136C62.8704 83.3482 63.0488 83.2773 63.2256 83.2028C63.4716 82.9146 63.6214 82.8593 63.9956 82.8141L64.404 82.7811V82.4649H65.3682V82.1487H66.3324V81.8325H67.2966V81.5163H68.3679L68.475 81.3055L68.7433 81.2618L69.071 81.2396L69.3995 81.2157L69.6535 81.2001V80.8839L69.8531 80.8913L70.1155 80.897C70.2498 80.9009 70.3147 80.9027 70.3794 80.9008C70.44 80.899 70.5006 80.8938 70.6177 80.8839C70.7838 80.7578 70.8555 80.7034 70.9363 80.6739C70.9976 80.6515 71.0642 80.6435 71.1814 80.6294L71.4413 80.6072L71.7036 80.5833L71.9033 80.5676L72.0104 80.2514L72.2841 80.2551L72.6398 80.258C72.6858 80.2585 72.7302 80.2595 72.7733 80.2605C73.0389 80.2665 73.2554 80.2714 73.5102 80.146V79.9352H74.903V79.619L75.1729 79.6227L75.5257 79.6256C75.8954 79.6295 76.158 79.629 76.5099 79.5136V79.3028L76.7255 79.3102L77.0121 79.316C77.1522 79.3196 77.2228 79.3215 77.2933 79.3199C77.3651 79.3183 77.4367 79.3132 77.5813 79.3028C77.989 79.1402 78.3382 79.0494 78.7733 78.9985L79.0075 78.9734L79.4749 78.9199L79.831 78.8812V78.565C80.0306 78.567 80.2303 78.5689 80.4299 78.5701L80.6747 78.5716C80.742 78.5723 80.8091 78.5746 80.8759 78.5769C81.1808 78.5872 81.4792 78.5974 81.7594 78.4596V78.2488H83.7949V77.9325H85.9376L86.0447 77.6163H88.2945L88.4016 77.3001C88.6774 77.3023 88.9531 77.304 89.2289 77.3053L89.5666 77.3067L89.9019 77.3094L90.222 77.3104C90.2481 77.3106 90.2734 77.3108 90.2978 77.311C90.5543 77.3135 90.7278 77.3152 90.9728 77.1947V76.9839H93.5439L93.6511 76.6677C93.9776 76.6699 94.3042 76.6716 94.6307 76.6728L95.0304 76.6743L95.4275 76.677L95.8062 76.678C95.849 76.6782 95.8901 76.6788 95.9298 76.6794C96.1925 76.6834 96.3982 76.6865 96.6507 76.5623V76.3515H99.329L99.4362 76.1407L102.543 76.0353L102.65 75.7191C103.015 75.7234 103.379 75.7269 103.744 75.7293L104.19 75.7322L104.634 75.7376L105.056 75.7396C105.274 75.7415 105.371 75.7423 105.467 75.7385C105.544 75.7355 105.62 75.7296 105.757 75.7191C105.923 75.5969 106.007 75.535 106.101 75.5038C106.198 75.4717 106.307 75.4723 106.526 75.4737L106.754 75.472C106.996 75.4672 107.238 75.4624 107.48 75.4589L107.565 75.4578C107.868 75.4538 108.171 75.4497 108.474 75.4437L108.709 75.4391C108.979 75.4371 109.237 75.4256 109.507 75.4028C109.852 75.176 110.041 75.1659 110.447 75.1602C110.615 75.1597 110.784 75.1582 110.952 75.1556C111.222 75.1514 111.493 75.1484 111.763 75.1459C112.034 75.144 112.305 75.1417 112.575 75.1374L112.831 75.1331C113.124 75.1331 113.393 75.1197 113.685 75.0866L113.899 74.7704L114.163 74.7298L114.5 74.7282L114.881 74.7239C115.16 74.7239 115.439 74.7225 115.718 74.7197C116.013 74.7166 116.309 74.7145 116.604 74.7131C117.131 74.7108 117.658 74.7084 118.184 74.7036L118.824 74.6975L119.237 74.6969L119.619 74.6936C119.807 74.6928 119.89 74.6925 119.973 74.6876C120.038 74.6837 120.103 74.677 120.22 74.665C120.318 74.5456 120.369 74.4846 120.434 74.4543C120.502 74.4226 120.585 74.4246 120.757 74.4288L121.176 74.4303C121.419 74.4302 121.662 74.4304 121.905 74.4319C122.079 74.433 122.253 74.4338 122.427 74.4342C122.882 74.4347 123.337 74.436 123.792 74.4383C124.263 74.4407 124.735 74.4422 125.207 74.4433C126.223 74.4456 127.239 74.4493 128.255 74.4542L128.362 74.665H132.647V74.8758C132.929 75.0029 133.16 75.0847 133.47 75.1106L133.774 75.1072L134.106 75.1052L134.448 75.0998C134.775 75.0971 135.102 75.0944 135.429 75.09L135.647 75.0866V75.2974C135.84 75.3607 135.917 75.386 135.996 75.3987C136.049 75.4072 136.102 75.41 136.192 75.4148L136.445 75.4131L136.72 75.4121L137.006 75.4094C137.278 75.4081 137.55 75.4067 137.822 75.4045L138.004 75.4028V75.6136C138.101 75.6616 138.154 75.6877 138.21 75.7043C138.277 75.7243 138.348 75.7305 138.505 75.7442L138.847 75.752C139.24 75.7658 139.433 75.768 139.757 75.5441C139.845 75.4199 139.889 75.3582 139.916 75.2899C139.943 75.2227 139.953 75.149 139.974 75.0026L139.959 74.6914C139.952 74.5068 139.944 74.3223 139.932 74.138L139.289 74.0326L139.182 73.7164H137.147V73.5056C137.044 73.4551 136.991 73.4288 136.934 73.4128C136.873 73.3952 136.808 73.3898 136.672 73.3785L136.349 73.3668L136 73.3534L135.633 73.3409C135.287 73.3279 134.94 73.315 134.594 73.3028L134.361 73.2948L134.254 73.0839C133.828 73.0757 133.401 73.0669 132.975 73.0568L132.453 73.0444C132.196 73.0396 131.94 73.0347 131.683 73.0284L131.44 73.0222C131.16 73.0178 130.891 73.0039 130.612 72.9785C130.29 72.7677 130.29 72.7677 130.048 72.7418L129.759 72.7424L129.428 72.7415L129.064 72.7438C128.661 72.7437 128.258 72.7439 127.856 72.7454C127.494 72.747 127.133 72.7476 126.772 72.7479C126.091 72.7484 125.409 72.7497 124.728 72.7518C123.945 72.7542 123.163 72.7557 122.381 72.7568Z" fill="white"/>
</g>
<defs>
<clipPath id="clip0_2_9">
<rect width="169" height="89" fill="white"/>
</clipPath>
</defs>
</svg>
